<svg width="398" height="398" viewBox="0 0 398 398" fill="none" xmlns="http://www.w3.org/2000/svg">
<path d="M232.117 66.3335C238.1 66.3334 243.972 67.9518 249.11 71.0172C254.248 74.0826 258.461 78.4809 261.303 83.746L269.363 98.671C272.205 103.936 276.418 108.334 281.556 111.4C286.695 114.465 292.566 116.084 298.55 116.083H331.666C340.463 116.083 348.899 119.578 355.119 125.798C361.339 132.018 364.833 140.454 364.833 149.25V298.5C364.833 307.296 361.339 315.733 355.119 321.953C348.899 328.172 340.463 331.667 331.666 331.667H66.3332C57.5368 331.667 49.1007 328.172 42.8808 321.953C36.6608 315.733 33.1665 307.296 33.1665 298.5V149.25C33.1665 140.454 36.6608 132.018 42.8808 125.798C49.1007 119.578 57.5368 116.083 66.3332 116.083H99.4501C105.427 116.084 111.293 114.469 116.428 111.41C121.563 108.351 125.775 103.961 128.62 98.7042L136.729 83.7128C139.574 78.4564 143.787 74.0665 148.922 71.0072C154.057 67.948 159.923 66.3332 165.899 66.3335H232.117Z" stroke="#4A5565" stroke-width="18" stroke-linecap="round" stroke-linejoin="round"/>
<path d="M199 265.333C226.476 265.333 248.75 243.06 248.75 215.583C248.75 188.107 226.476 165.833 199 165.833C171.524 165.833 149.25 188.107 149.25 215.583C149.25 243.06 171.524 265.333 199 265.333Z" stroke="#4A5565" stroke-width="18" stroke-linecap="round" stroke-linejoin="round"/>
</svg>
