<svg width="110" height="110" viewBox="0 0 110 110" fill="none" xmlns="http://www.w3.org/2000/svg">
<path d="M64.153 18.3334C65.8066 18.3334 67.4295 18.7806 68.8496 19.6279C70.2697 20.4751 71.4342 21.6907 72.2197 23.1459L74.4472 27.2709C75.2326 28.726 76.3971 29.9416 77.8172 30.7889C79.2373 31.6361 80.8602 32.0834 82.5138 32.0834H91.6667C94.0979 32.0834 96.4295 33.0491 98.1486 34.7682C99.8676 36.4873 100.833 38.8189 100.833 41.25V82.5C100.833 84.9312 99.8676 87.2628 98.1486 88.9818C96.4295 90.7009 94.0979 91.6667 91.6667 91.6667H18.3334C15.9023 91.6667 13.5707 90.7009 11.8516 88.9818C10.1325 87.2628 9.16675 84.9312 9.16675 82.5V41.25C9.16675 38.8189 10.1325 36.4873 11.8516 34.7682C13.5707 33.0491 15.9023 32.0834 18.3334 32.0834H27.4863C29.1383 32.0835 30.7595 31.6372 32.1787 30.7916C33.5978 29.9461 34.7621 28.7328 35.5484 27.28L37.7897 23.1367C38.576 21.6839 39.7403 20.4706 41.1594 19.6251C42.5786 18.7796 44.1998 18.3333 45.8517 18.3334H64.153Z" stroke="#4A5565" stroke-width="6.66667" stroke-linecap="round" stroke-linejoin="round"/>
<path d="M55 73.3334C62.5939 73.3334 68.75 67.1773 68.75 59.5834C68.75 51.9895 62.5939 45.8334 55 45.8334C47.4061 45.8334 41.25 51.9895 41.25 59.5834C41.25 67.1773 47.4061 73.3334 55 73.3334Z" stroke="#4A5565" stroke-width="6.66667" stroke-linecap="round" stroke-linejoin="round"/>
</svg>
