<svg width="160" height="160" viewBox="0 0 160 160" fill="none" xmlns="http://www.w3.org/2000/svg">
<path d="M93.3132 26.6665C95.7185 26.6665 98.079 27.3171 100.145 28.5494C102.21 29.7817 103.904 31.5499 105.047 33.6665L108.287 39.6665C109.429 41.7831 111.123 43.5513 113.189 44.7836C115.254 46.0159 117.615 46.6665 120.02 46.6665H133.333C136.869 46.6665 140.261 48.0713 142.761 50.5717C145.262 53.0722 146.667 56.4636 146.667 59.9998V120C146.667 123.536 145.262 126.927 142.761 129.428C140.261 131.928 136.869 133.333 133.333 133.333H26.6666C23.1304 133.333 19.739 131.928 17.2385 129.428C14.738 126.927 13.3333 123.536 13.3333 120V59.9998C13.3333 56.4636 14.738 53.0722 17.2385 50.5717C19.739 48.0713 23.1304 46.6665 26.6666 46.6665H39.9799C42.3827 46.6666 44.7409 46.0175 46.8051 44.7876C48.8693 43.5578 50.5628 41.793 51.7066 39.6798L54.9666 33.6532C56.1103 31.54 57.8038 29.7752 59.868 28.5454C61.9323 27.3156 64.2904 26.6664 66.6932 26.6665H93.3132Z" stroke="#4A5565" stroke-width="9" stroke-linecap="round" stroke-linejoin="round"/>
<path d="M80 106.667C91.0457 106.667 100 97.7122 100 86.6665C100 75.6208 91.0457 66.6665 80 66.6665C68.9543 66.6665 60 75.6208 60 86.6665C60 97.7122 68.9543 106.667 80 106.667Z" stroke="#4A5565" stroke-width="9" stroke-linecap="round" stroke-linejoin="round"/>
</svg>
