<svg width="740" height="498" viewBox="0 0 740 498" fill="none" xmlns="http://www.w3.org/2000/svg">
<rect x="6.1327" y="145.02" width="251" height="359" rx="15" transform="rotate(-15.1458 6.1327 145.02)" fill="url(#paint0_linear_462_7501)"/>
<rect x="6.1327" y="145.02" width="251" height="359" rx="15" transform="rotate(-15.1458 6.1327 145.02)" stroke="#FFFCE8" stroke-width="10"/>
<rect x="6.1327" y="145.02" width="251" height="359" rx="15" transform="rotate(-15.1458 6.1327 145.02)" fill="url(#paint1_linear_462_7501)" stroke="#FFFCE8" stroke-width="10"/>
<g filter="url(#filter0_d_462_7501)">
<g filter="url(#filter1_di_462_7501)">
<path d="M181.417 321.48L164.048 301.437C162.986 300.211 162.708 298.403 163.362 296.975L170.867 280.58C171.72 278.716 173.836 278.144 175.512 279.322L190.263 289.693C191.548 290.597 192.22 292.298 191.921 293.893L187.033 319.96C186.496 322.823 183.324 323.681 181.417 321.48Z" fill="#FFF8DE"/>
</g>
<path d="M140.663 330.511C140.138 328.571 141.419 326.537 143.525 325.967L222.015 304.722C224.121 304.151 226.253 305.262 226.779 307.201L230.575 321.229C231.1 323.168 229.819 325.203 227.713 325.773L149.223 347.018C147.117 347.588 144.984 346.478 144.459 344.539L140.663 330.511Z" fill="#FF7A00"/>
<path d="M144.719 268.617L152.99 231.292C154.297 225.393 161.984 223.312 166.088 227.746L192.057 255.804C195.157 259.154 200.701 258.93 203.65 255.335L214.821 241.72C218.984 236.647 227.316 238.705 228.221 245.032L237.377 308.977C237.901 312.635 235.495 316.149 231.779 317.155L141.365 341.628C137.649 342.634 133.799 340.813 132.406 337.39L108.058 277.557C105.649 271.638 111.804 265.658 117.958 267.939L134.471 274.06C138.831 275.677 143.731 273.074 144.719 268.617Z" fill="url(#paint2_radial_462_7501)"/>
<path d="M166.391 277.656C168.359 273.291 174.002 271.763 177.903 274.54L193.002 285.289C195.791 287.274 196.765 290.873 195.358 293.993L187.742 310.891C185.775 315.256 180.131 316.784 176.23 314.007L161.131 303.258C158.343 301.273 157.369 297.674 158.775 294.554L166.391 277.656Z" fill="url(#paint3_radial_462_7501)"/>
</g>
<rect x="77.63" y="81.382" width="251" height="359" rx="15" transform="rotate(-7.50229 77.63 81.382)" fill="url(#paint4_linear_462_7501)"/>
<rect x="77.63" y="81.382" width="251" height="359" rx="15" transform="rotate(-7.50229 77.63 81.382)" stroke="#FFFCE8" stroke-width="10"/>
<rect x="77.63" y="81.382" width="251" height="359" rx="15" transform="rotate(-7.50229 77.63 81.382)" fill="url(#paint5_linear_462_7501)" stroke="#FFFCE8" stroke-width="10"/>
<g filter="url(#filter2_d_462_7501)">
<g filter="url(#filter3_di_462_7501)">
<path d="M227.886 279.588L213.338 257.414C212.448 256.057 212.413 254.228 213.251 252.899L222.87 237.648C223.964 235.915 226.136 235.629 227.641 237.02L240.881 249.261C242.035 250.327 242.474 252.103 241.966 253.643L233.655 278.829C232.742 281.595 229.484 282.024 227.886 279.588Z" fill="#FFF8DE"/>
</g>
<path d="M186.292 283.118C186.03 281.126 187.571 279.28 189.734 278.995L270.352 268.379C272.515 268.094 274.481 269.478 274.744 271.47L276.641 285.878C276.903 287.87 275.363 289.716 273.2 290.001L192.582 300.618C190.418 300.903 188.452 299.519 188.19 297.526L186.292 283.118Z" fill="#FF7A00"/>
<path d="M198.545 222.314L211.707 186.42C213.787 180.748 221.683 179.708 225.161 184.649L247.167 215.911C249.794 219.644 255.318 220.159 258.72 216.988L271.602 204.98C276.403 200.505 284.387 203.654 284.443 210.045L285.012 274.639C285.045 278.334 282.193 281.498 278.376 282.001L185.51 294.23C181.693 294.733 178.119 292.416 177.194 288.838L161.021 226.299C159.421 220.111 166.317 215.003 172.113 218.083L187.664 226.346C191.771 228.528 196.973 226.6 198.545 222.314Z" fill="url(#paint6_radial_462_7501)"/>
<path d="M218.823 234.155C221.354 230.09 227.15 229.327 230.647 232.598L244.182 245.26C246.682 247.598 247.169 251.294 245.36 254.2L235.564 269.934C233.033 273.999 227.237 274.762 223.74 271.491L210.204 258.83C207.705 256.492 207.218 252.795 209.027 249.89L218.823 234.155Z" fill="url(#paint7_radial_462_7501)"/>
</g>
<rect x="183.553" y="22.3767" width="251" height="359" rx="15" transform="rotate(4.49834 183.553 22.3767)" fill="url(#paint8_linear_462_7501)"/>
<rect x="183.553" y="22.3767" width="251" height="359" rx="15" transform="rotate(4.49834 183.553 22.3767)" stroke="#FFFCE8" stroke-width="10"/>
<rect x="183.553" y="22.3767" width="251" height="359" rx="15" transform="rotate(4.49834 183.553 22.3767)" fill="url(#paint9_linear_462_7501)" stroke="#FFFCE8" stroke-width="10"/>
<g filter="url(#filter4_d_462_7501)">
<g filter="url(#filter5_di_462_7501)">
<path d="M289.314 247.493L279.695 222.778C279.106 221.266 279.452 219.47 280.548 218.345L293.128 205.427C294.558 203.959 296.743 204.131 297.926 205.804L308.331 220.53C309.238 221.814 309.299 223.642 308.481 225.043L295.115 247.949C293.647 250.466 290.371 250.208 289.314 247.493Z" fill="#FFF8DE"/>
</g>
<path d="M247.896 242.298C248.053 240.295 249.944 238.81 252.119 238.981L333.183 245.358C335.358 245.529 336.993 247.292 336.836 249.295L335.696 263.783C335.539 265.786 333.648 267.271 331.473 267.1L250.409 260.723C248.234 260.552 246.598 258.789 246.756 256.786L247.896 242.298Z" fill="#FF7A00"/>
<path d="M272.523 185.37L292.861 152.997C296.075 147.882 304.014 148.506 306.389 154.062L321.414 189.216C323.208 193.414 328.504 195.066 332.491 192.672L347.588 183.605C353.214 180.226 360.369 184.966 359.095 191.229L346.221 254.53C345.485 258.151 342.037 260.653 338.199 260.351L244.82 253.004C240.982 252.702 237.968 249.693 237.807 246.001L234.991 181.465C234.712 175.08 242.52 171.518 247.549 175.735L261.042 187.051C264.606 190.039 270.095 189.236 272.523 185.37Z" fill="url(#paint10_radial_462_7501)"/>
<path d="M289.896 201.169C293.217 197.719 299.045 198.178 301.785 202.104L312.392 217.304C314.351 220.11 314.059 223.827 311.685 226.293L298.832 239.647C295.511 243.097 289.683 242.638 286.942 238.711L276.335 223.512C274.377 220.705 274.669 216.988 277.043 214.523L289.896 201.169Z" fill="url(#paint11_radial_462_7501)"/>
</g>
<rect x="299.696" y="6.28577" width="251" height="359" rx="15" transform="rotate(17.7405 299.696 6.28577)" fill="url(#paint12_linear_462_7501)"/>
<rect x="299.696" y="6.28577" width="251" height="359" rx="15" transform="rotate(17.7405 299.696 6.28577)" stroke="#FFFCE8" stroke-width="10"/>
<rect x="299.696" y="6.28577" width="251" height="359" rx="15" transform="rotate(17.7405 299.696 6.28577)" fill="url(#paint13_linear_462_7501)" stroke="#FFFCE8" stroke-width="10"/>
<g filter="url(#filter6_d_462_7501)">
<g filter="url(#filter7_di_462_7501)">
<path d="M351.077 249.643L347.375 223.381C347.148 221.775 347.896 220.106 349.221 219.261L364.426 209.569C366.154 208.467 368.241 209.135 369.009 211.035L375.765 227.753C376.353 229.21 375.994 231.003 374.877 232.18L356.619 251.416C354.614 253.529 351.484 252.527 351.077 249.643Z" fill="#FFF8DE"/>
</g>
<path d="M311.95 235.098C312.563 233.184 314.744 232.171 316.822 232.836L394.269 257.613C396.347 258.278 397.535 260.368 396.923 262.282L392.495 276.123C391.882 278.037 389.702 279.05 387.624 278.385L310.176 253.608C308.098 252.943 306.91 250.853 307.522 248.939L311.95 235.098Z" fill="#FF7A00"/>
<path d="M348.963 185.325L376.176 158.472C380.476 154.228 388.061 156.655 389.1 162.607L395.672 200.268C396.457 204.766 401.234 207.587 405.663 206.17L422.436 200.802C428.687 198.802 434.565 205.055 431.891 210.859L404.859 269.528C403.313 272.884 399.384 274.53 395.717 273.356L306.504 244.815C302.837 243.642 300.593 240.022 301.282 236.392L313.323 172.927C314.514 166.648 322.93 164.968 326.86 170.225L337.402 184.332C340.186 188.057 345.714 188.532 348.963 185.325Z" fill="url(#paint14_radial_462_7501)"/>
<path d="M362.255 204.683C366.277 202.086 371.846 203.867 373.614 208.317L380.457 225.542C381.721 228.723 380.585 232.274 377.71 234.131L362.139 244.185C358.116 246.782 352.548 245.001 350.78 240.551L343.937 223.326C342.673 220.145 343.809 216.594 346.684 214.737L362.255 204.683Z" fill="url(#paint15_radial_462_7501)"/>
</g>
<rect x="436.469" y="14.9401" width="251" height="359" rx="15" transform="rotate(33.9535 436.469 14.9401)" fill="url(#paint16_linear_462_7501)"/>
<rect x="436.469" y="14.9401" width="251" height="359" rx="15" transform="rotate(33.9535 436.469 14.9401)" stroke="#FFFCE8" stroke-width="10"/>
<rect x="436.469" y="14.9401" width="251" height="359" rx="15" transform="rotate(33.9535 436.469 14.9401)" fill="url(#paint17_linear_462_7501)" stroke="#FFFCE8" stroke-width="10"/>
<g clip-path="url(#clip0_462_7501)">
<g filter="url(#filter8_d_462_7501)">
<g filter="url(#filter9_di_462_7501)">
<path d="M417.86 262.965L421.637 236.714C421.868 235.108 423.053 233.715 424.561 233.274L441.867 228.212C443.834 227.637 445.652 228.861 445.859 230.899L447.678 248.839C447.836 250.402 446.99 252.024 445.589 252.842L422.687 266.215C420.171 267.684 417.445 265.848 417.86 262.965Z" fill="#FFF8DE"/>
</g>
<path d="M384.35 238.074C385.473 236.407 387.849 236.044 389.659 237.263L457.108 282.678C458.918 283.897 459.476 286.236 458.353 287.902L450.237 299.957C449.114 301.624 446.737 301.987 444.928 300.768L377.478 255.353C375.669 254.134 375.111 251.795 376.234 250.129L384.35 238.074Z" fill="#FF7A00"/>
<path d="M433.788 200.615L467.416 182.428C472.73 179.554 479.336 184.002 478.672 190.007L474.468 228.006C473.966 232.543 477.765 236.586 482.413 236.462L500.018 235.991C506.579 235.815 510.477 243.461 506.289 248.288L463.951 297.076C461.529 299.867 457.297 300.35 454.104 298.2L376.407 245.884C373.214 243.734 372.07 239.631 373.745 236.338L403.027 178.759C405.924 173.062 414.474 173.799 416.779 179.944L422.964 196.433C424.598 200.787 429.773 202.787 433.788 200.615Z" fill="url(#paint18_radial_462_7501)"/>
<path d="M441.146 222.914C445.734 221.543 450.584 224.809 451.039 229.576L452.801 248.026C453.126 251.433 451.044 254.526 447.764 255.506L430.006 260.813C425.418 262.184 420.568 258.919 420.113 254.152L418.351 235.701C418.026 232.294 420.108 229.201 423.388 228.221L441.146 222.914Z" fill="url(#paint19_radial_462_7501)"/>
</g>
</g>
<rect x="553.688" y="54.071" width="251" height="359" rx="15" transform="rotate(44.7175 553.688 54.071)" fill="url(#paint20_linear_462_7501)"/>
<rect x="553.688" y="54.071" width="251" height="359" rx="15" transform="rotate(44.7175 553.688 54.071)" stroke="#FFFCE8" stroke-width="10"/>
<rect x="553.688" y="54.071" width="251" height="359" rx="15" transform="rotate(44.7175 553.688 54.071)" fill="url(#paint21_linear_462_7501)" stroke="#FFFCE8" stroke-width="10"/>
<g clip-path="url(#clip1_462_7501)">
<g filter="url(#filter10_d_462_7501)">
<g filter="url(#filter11_di_462_7501)">
<path d="M489.084 294.256L497.697 269.173C498.224 267.638 499.648 266.49 501.212 266.339L519.159 264.598C521.199 264.4 522.756 265.942 522.578 267.984L521.015 285.947C520.879 287.513 519.745 288.948 518.216 289.49L493.219 298.35C490.473 299.324 488.138 297.011 489.084 294.256Z" fill="#FFF8DE"/>
</g>
<path d="M460.813 263.545C462.226 262.117 464.629 262.204 466.18 263.74L523.96 320.953C525.511 322.488 525.621 324.89 524.207 326.318L513.982 336.644C512.568 338.072 510.165 337.985 508.615 336.45L450.835 279.237C449.284 277.702 449.174 275.3 450.587 273.872L460.813 263.545Z" fill="#FF7A00"/>
<path d="M516.377 235.978L552.809 224.391C558.567 222.56 564.226 228.164 562.452 233.939L551.225 270.484C549.884 274.848 552.861 279.53 557.451 280.276L574.834 283.101C581.312 284.154 583.714 292.393 578.698 296.353L527.993 336.375C525.093 338.665 520.845 338.349 518.11 335.64L451.551 269.734C448.815 267.026 448.457 262.781 450.718 259.858L490.239 208.762C494.149 203.706 502.411 206.027 503.528 212.495L506.524 229.849C507.316 234.431 512.026 237.362 516.377 235.978Z" fill="url(#paint22_radial_462_7501)"/>
<path d="M519.44 259.26C524.203 258.77 528.358 262.883 527.915 267.651L526.2 286.106C525.883 289.514 523.26 292.163 519.855 292.514L501.418 294.411C496.655 294.901 492.5 290.787 492.943 286.019L494.658 267.564C494.975 264.156 497.598 261.507 501.003 261.157L519.44 259.26Z" fill="url(#paint23_radial_462_7501)"/>
</g>
</g>
<defs>
<filter id="filter0_d_462_7501" x="103.523" y="221.364" width="137.926" height="129.804" filterUnits="userSpaceOnUse" color-interpolation-filters="sRGB">
<feFlood flood-opacity="0" result="BackgroundImageFix"/>
<feColorMatrix in="SourceAlpha" type="matrix" values="0 0 0 0 0 0 0 0 0 0 0 0 0 0 0 0 0 0 127 0" result="hardAlpha"/>
<feOffset/>
<feGaussianBlur stdDeviation="2"/>
<feColorMatrix type="matrix" values="0 0 0 0 1 0 0 0 0 0.780392 0 0 0 0 0 0 0 0 0.3 0"/>
<feBlend mode="normal" in2="BackgroundImageFix" result="effect1_dropShadow_462_7501"/>
<feBlend mode="normal" in="SourceGraphic" in2="effect1_dropShadow_462_7501" result="shape"/>
</filter>
<filter id="filter1_di_462_7501" x="159.011" y="275.708" width="36.98" height="52.0137" filterUnits="userSpaceOnUse" color-interpolation-filters="sRGB">
<feFlood flood-opacity="0" result="BackgroundImageFix"/>
<feColorMatrix in="SourceAlpha" type="matrix" values="0 0 0 0 0 0 0 0 0 0 0 0 0 0 0 0 0 0 127 0" result="hardAlpha"/>
<feOffset dy="1"/>
<feGaussianBlur stdDeviation="2"/>
<feColorMatrix type="matrix" values="0 0 0 0 0 0 0 0 0 0 0 0 0 0 0 0 0 0 0.68 0"/>
<feBlend mode="overlay" in2="BackgroundImageFix" result="effect1_dropShadow_462_7501"/>
<feBlend mode="normal" in="SourceGraphic" in2="effect1_dropShadow_462_7501" result="shape"/>
<feColorMatrix in="SourceAlpha" type="matrix" values="0 0 0 0 0 0 0 0 0 0 0 0 0 0 0 0 0 0 127 0" result="hardAlpha"/>
<feOffset dy="-1"/>
<feGaussianBlur stdDeviation="1"/>
<feComposite in2="hardAlpha" operator="arithmetic" k2="-1" k3="1"/>
<feColorMatrix type="matrix" values="0 0 0 0 1 0 0 0 0 0.914286 0 0 0 0 0.55 0 0 0 1 0"/>
<feBlend mode="normal" in2="shape" result="effect2_innerShadow_462_7501"/>
</filter>
<filter id="filter2_d_462_7501" x="156.786" y="177.485" width="132.227" height="127.169" filterUnits="userSpaceOnUse" color-interpolation-filters="sRGB">
<feFlood flood-opacity="0" result="BackgroundImageFix"/>
<feColorMatrix in="SourceAlpha" type="matrix" values="0 0 0 0 0 0 0 0 0 0 0 0 0 0 0 0 0 0 127 0" result="hardAlpha"/>
<feOffset/>
<feGaussianBlur stdDeviation="2"/>
<feColorMatrix type="matrix" values="0 0 0 0 1 0 0 0 0 0.780392 0 0 0 0 0 0 0 0 0.3 0"/>
<feBlend mode="normal" in2="BackgroundImageFix" result="effect1_dropShadow_462_7501"/>
<feBlend mode="normal" in="SourceGraphic" in2="effect1_dropShadow_462_7501" result="shape"/>
</filter>
<filter id="filter3_di_462_7501" x="208.646" y="233.138" width="37.5298" height="53.0469" filterUnits="userSpaceOnUse" color-interpolation-filters="sRGB">
<feFlood flood-opacity="0" result="BackgroundImageFix"/>
<feColorMatrix in="SourceAlpha" type="matrix" values="0 0 0 0 0 0 0 0 0 0 0 0 0 0 0 0 0 0 127 0" result="hardAlpha"/>
<feOffset dy="1"/>
<feGaussianBlur stdDeviation="2"/>
<feColorMatrix type="matrix" values="0 0 0 0 0 0 0 0 0 0 0 0 0 0 0 0 0 0 0.68 0"/>
<feBlend mode="overlay" in2="BackgroundImageFix" result="effect1_dropShadow_462_7501"/>
<feBlend mode="normal" in="SourceGraphic" in2="effect1_dropShadow_462_7501" result="shape"/>
<feColorMatrix in="SourceAlpha" type="matrix" values="0 0 0 0 0 0 0 0 0 0 0 0 0 0 0 0 0 0 127 0" result="hardAlpha"/>
<feOffset dy="-1"/>
<feGaussianBlur stdDeviation="1"/>
<feComposite in2="hardAlpha" operator="arithmetic" k2="-1" k3="1"/>
<feColorMatrix type="matrix" values="0 0 0 0 1 0 0 0 0 0.914286 0 0 0 0 0.55 0 0 0 1 0"/>
<feBlend mode="normal" in2="shape" result="effect2_innerShadow_462_7501"/>
</filter>
<filter id="filter4_d_462_7501" x="230.983" y="145.503" width="132.261" height="125.611" filterUnits="userSpaceOnUse" color-interpolation-filters="sRGB">
<feFlood flood-opacity="0" result="BackgroundImageFix"/>
<feColorMatrix in="SourceAlpha" type="matrix" values="0 0 0 0 0 0 0 0 0 0 0 0 0 0 0 0 0 0 127 0" result="hardAlpha"/>
<feOffset/>
<feGaussianBlur stdDeviation="2"/>
<feColorMatrix type="matrix" values="0 0 0 0 1 0 0 0 0 0.780392 0 0 0 0 0 0 0 0 0.3 0"/>
<feBlend mode="normal" in2="BackgroundImageFix" result="effect1_dropShadow_462_7501"/>
<feBlend mode="normal" in="SourceGraphic" in2="effect1_dropShadow_462_7501" result="shape"/>
</filter>
<filter id="filter5_di_462_7501" x="275.411" y="201.429" width="37.6445" height="53.2632" filterUnits="userSpaceOnUse" color-interpolation-filters="sRGB">
<feFlood flood-opacity="0" result="BackgroundImageFix"/>
<feColorMatrix in="SourceAlpha" type="matrix" values="0 0 0 0 0 0 0 0 0 0 0 0 0 0 0 0 0 0 127 0" result="hardAlpha"/>
<feOffset dy="1"/>
<feGaussianBlur stdDeviation="2"/>
<feColorMatrix type="matrix" values="0 0 0 0 0 0 0 0 0 0 0 0 0 0 0 0 0 0 0.68 0"/>
<feBlend mode="overlay" in2="BackgroundImageFix" result="effect1_dropShadow_462_7501"/>
<feBlend mode="normal" in="SourceGraphic" in2="effect1_dropShadow_462_7501" result="shape"/>
<feColorMatrix in="SourceAlpha" type="matrix" values="0 0 0 0 0 0 0 0 0 0 0 0 0 0 0 0 0 0 127 0" result="hardAlpha"/>
<feOffset dy="-1"/>
<feGaussianBlur stdDeviation="1"/>
<feComposite in2="hardAlpha" operator="arithmetic" k2="-1" k3="1"/>
<feColorMatrix type="matrix" values="0 0 0 0 1 0 0 0 0 0.914286 0 0 0 0 0.55 0 0 0 1 0"/>
<feBlend mode="normal" in2="shape" result="effect2_innerShadow_462_7501"/>
</filter>
<filter id="filter6_d_462_7501" x="297.158" y="152.333" width="139.396" height="130.256" filterUnits="userSpaceOnUse" color-interpolation-filters="sRGB">
<feFlood flood-opacity="0" result="BackgroundImageFix"/>
<feColorMatrix in="SourceAlpha" type="matrix" values="0 0 0 0 0 0 0 0 0 0 0 0 0 0 0 0 0 0 127 0" result="hardAlpha"/>
<feOffset/>
<feGaussianBlur stdDeviation="2"/>
<feColorMatrix type="matrix" values="0 0 0 0 1 0 0 0 0 0.780392 0 0 0 0 0 0 0 0 0.3 0"/>
<feBlend mode="normal" in2="BackgroundImageFix" result="effect1_dropShadow_462_7501"/>
<feBlend mode="normal" in="SourceGraphic" in2="effect1_dropShadow_462_7501" result="shape"/>
</filter>
<filter id="filter7_di_462_7501" x="343.334" y="206.037" width="36.7104" height="51.5078" filterUnits="userSpaceOnUse" color-interpolation-filters="sRGB">
<feFlood flood-opacity="0" result="BackgroundImageFix"/>
<feColorMatrix in="SourceAlpha" type="matrix" values="0 0 0 0 0 0 0 0 0 0 0 0 0 0 0 0 0 0 127 0" result="hardAlpha"/>
<feOffset dy="1"/>
<feGaussianBlur stdDeviation="2"/>
<feColorMatrix type="matrix" values="0 0 0 0 0 0 0 0 0 0 0 0 0 0 0 0 0 0 0.68 0"/>
<feBlend mode="overlay" in2="BackgroundImageFix" result="effect1_dropShadow_462_7501"/>
<feBlend mode="normal" in="SourceGraphic" in2="effect1_dropShadow_462_7501" result="shape"/>
<feColorMatrix in="SourceAlpha" type="matrix" values="0 0 0 0 0 0 0 0 0 0 0 0 0 0 0 0 0 0 127 0" result="hardAlpha"/>
<feOffset dy="-1"/>
<feGaussianBlur stdDeviation="1"/>
<feComposite in2="hardAlpha" operator="arithmetic" k2="-1" k3="1"/>
<feColorMatrix type="matrix" values="0 0 0 0 1 0 0 0 0 0.914286 0 0 0 0 0.55 0 0 0 1 0"/>
<feBlend mode="normal" in2="shape" result="effect2_innerShadow_462_7501"/>
</filter>
<filter id="filter8_d_462_7501" x="368.977" y="170.882" width="143.048" height="134.607" filterUnits="userSpaceOnUse" color-interpolation-filters="sRGB">
<feFlood flood-opacity="0" result="BackgroundImageFix"/>
<feColorMatrix in="SourceAlpha" type="matrix" values="0 0 0 0 0 0 0 0 0 0 0 0 0 0 0 0 0 0 127 0" result="hardAlpha"/>
<feOffset/>
<feGaussianBlur stdDeviation="2"/>
<feColorMatrix type="matrix" values="0 0 0 0 1 0 0 0 0 0.780392 0 0 0 0 0 0 0 0 0.3 0"/>
<feBlend mode="normal" in2="BackgroundImageFix" result="effect1_dropShadow_462_7501"/>
<feBlend mode="normal" in="SourceGraphic" in2="effect1_dropShadow_462_7501" result="shape"/>
</filter>
<filter id="filter9_di_462_7501" x="413.818" y="225.07" width="37.8789" height="46.6631" filterUnits="userSpaceOnUse" color-interpolation-filters="sRGB">
<feFlood flood-opacity="0" result="BackgroundImageFix"/>
<feColorMatrix in="SourceAlpha" type="matrix" values="0 0 0 0 0 0 0 0 0 0 0 0 0 0 0 0 0 0 127 0" result="hardAlpha"/>
<feOffset dy="1"/>
<feGaussianBlur stdDeviation="2"/>
<feColorMatrix type="matrix" values="0 0 0 0 0 0 0 0 0 0 0 0 0 0 0 0 0 0 0.68 0"/>
<feBlend mode="overlay" in2="BackgroundImageFix" result="effect1_dropShadow_462_7501"/>
<feBlend mode="normal" in="SourceGraphic" in2="effect1_dropShadow_462_7501" result="shape"/>
<feColorMatrix in="SourceAlpha" type="matrix" values="0 0 0 0 0 0 0 0 0 0 0 0 0 0 0 0 0 0 127 0" result="hardAlpha"/>
<feOffset dy="-1"/>
<feGaussianBlur stdDeviation="1"/>
<feComposite in2="hardAlpha" operator="arithmetic" k2="-1" k3="1"/>
<feColorMatrix type="matrix" values="0 0 0 0 1 0 0 0 0 0.914286 0 0 0 0 0.55 0 0 0 1 0"/>
<feBlend mode="normal" in2="shape" result="effect2_innerShadow_462_7501"/>
</filter>
<filter id="filter10_d_462_7501" x="445.234" y="202.016" width="140.155" height="139.887" filterUnits="userSpaceOnUse" color-interpolation-filters="sRGB">
<feFlood flood-opacity="0" result="BackgroundImageFix"/>
<feColorMatrix in="SourceAlpha" type="matrix" values="0 0 0 0 0 0 0 0 0 0 0 0 0 0 0 0 0 0 127 0" result="hardAlpha"/>
<feOffset/>
<feGaussianBlur stdDeviation="2"/>
<feColorMatrix type="matrix" values="0 0 0 0 1 0 0 0 0 0.780392 0 0 0 0 0 0 0 0 0.3 0"/>
<feBlend mode="normal" in2="BackgroundImageFix" result="effect1_dropShadow_462_7501"/>
<feBlend mode="normal" in="SourceGraphic" in2="effect1_dropShadow_462_7501" result="shape"/>
</filter>
<filter id="filter11_di_462_7501" x="484.87" y="261.581" width="41.7227" height="41.9956" filterUnits="userSpaceOnUse" color-interpolation-filters="sRGB">
<feFlood flood-opacity="0" result="BackgroundImageFix"/>
<feColorMatrix in="SourceAlpha" type="matrix" values="0 0 0 0 0 0 0 0 0 0 0 0 0 0 0 0 0 0 127 0" result="hardAlpha"/>
<feOffset dy="1"/>
<feGaussianBlur stdDeviation="2"/>
<feColorMatrix type="matrix" values="0 0 0 0 0 0 0 0 0 0 0 0 0 0 0 0 0 0 0.68 0"/>
<feBlend mode="overlay" in2="BackgroundImageFix" result="effect1_dropShadow_462_7501"/>
<feBlend mode="normal" in="SourceGraphic" in2="effect1_dropShadow_462_7501" result="shape"/>
<feColorMatrix in="SourceAlpha" type="matrix" values="0 0 0 0 0 0 0 0 0 0 0 0 0 0 0 0 0 0 127 0" result="hardAlpha"/>
<feOffset dy="-1"/>
<feGaussianBlur stdDeviation="1"/>
<feComposite in2="hardAlpha" operator="arithmetic" k2="-1" k3="1"/>
<feColorMatrix type="matrix" values="0 0 0 0 1 0 0 0 0 0.914286 0 0 0 0 0.55 0 0 0 1 0"/>
<feBlend mode="normal" in2="shape" result="effect2_innerShadow_462_7501"/>
</filter>
<linearGradient id="paint0_linear_462_7501" x1="20.5" y1="156" x2="130.5" y2="510.5" gradientUnits="userSpaceOnUse">
<stop stop-color="#004562" stop-opacity="0.9"/>
<stop offset="1" stop-color="#CAFFD6"/>
</linearGradient>
<linearGradient id="paint1_linear_462_7501" x1="20.5" y1="156" x2="130.5" y2="510.5" gradientUnits="userSpaceOnUse">
<stop stop-color="#004562" stop-opacity="0.9"/>
<stop offset="1" stop-color="#CAFFD6"/>
</linearGradient>
<radialGradient id="paint2_radial_462_7501" cx="0" cy="0" r="1" gradientTransform="matrix(59.9473 50.9598 -48.8841 52.2061 145.12 273.426)" gradientUnits="userSpaceOnUse">
<stop stop-color="#FFEB81"/>
<stop offset="0.682292" stop-color="#FFC839"/>
</radialGradient>
<radialGradient id="paint3_radial_462_7501" cx="0" cy="0" r="1" gradientTransform="matrix(19.2047 22.2328 -25.3265 20.1814 167.351 288.102)" gradientUnits="userSpaceOnUse">
<stop stop-color="#FF7D16"/>
<stop offset="1" stop-color="#FF3E12"/>
</radialGradient>
<linearGradient id="paint4_linear_462_7501" x1="92.52" y1="91.5776" x2="202.52" y2="446.078" gradientUnits="userSpaceOnUse">
<stop stop-color="#004562" stop-opacity="0.9"/>
<stop offset="1" stop-color="#CAFFD6"/>
</linearGradient>
<linearGradient id="paint5_linear_462_7501" x1="92.52" y1="91.5776" x2="202.52" y2="446.078" gradientUnits="userSpaceOnUse">
<stop stop-color="#004562" stop-opacity="0.9"/>
<stop offset="1" stop-color="#CAFFD6"/>
</linearGradient>
<radialGradient id="paint6_radial_462_7501" cx="0" cy="0" r="1" gradientTransform="matrix(52.6366 58.4805 -55.3936 45.2402 198.303 227.133)" gradientUnits="userSpaceOnUse">
<stop stop-color="#FFEB81"/>
<stop offset="0.682292" stop-color="#FFC839"/>
</radialGradient>
<radialGradient id="paint7_radial_462_7501" cx="0" cy="0" r="1" gradientTransform="matrix(16.0769 24.5896 -27.7858 16.6334 218.385 244.636)" gradientUnits="userSpaceOnUse">
<stop stop-color="#FF7D16"/>
<stop offset="1" stop-color="#FF3E12"/>
</radialGradient>
<linearGradient id="paint8_linear_462_7501" x1="199.461" y1="31.5" x2="309.461" y2="386" gradientUnits="userSpaceOnUse">
<stop stop-color="#004562" stop-opacity="0.9"/>
<stop offset="1" stop-color="#CAFFD6"/>
</linearGradient>
<linearGradient id="paint9_linear_462_7501" x1="199.461" y1="31.5" x2="309.461" y2="386" gradientUnits="userSpaceOnUse">
<stop stop-color="#004562" stop-opacity="0.9"/>
<stop offset="1" stop-color="#CAFFD6"/>
</linearGradient>
<radialGradient id="paint10_radial_462_7501" cx="0" cy="0" r="1" gradientTransform="matrix(39.3268 68.1467 -63.5894 32.734 271.285 190.034)" gradientUnits="userSpaceOnUse">
<stop stop-color="#FFEB81"/>
<stop offset="0.682292" stop-color="#FFC839"/>
</radialGradient>
<radialGradient id="paint11_radial_462_7501" cx="0" cy="0" r="1" gradientTransform="matrix(10.6128 27.395 -30.637 10.4926 287.289 211.329)" gradientUnits="userSpaceOnUse">
<stop stop-color="#FF7D16"/>
<stop offset="1" stop-color="#FF3E12"/>
</radialGradient>
<linearGradient id="paint12_linear_462_7501" x1="316.957" y1="14.5" x2="426.957" y2="369" gradientUnits="userSpaceOnUse">
<stop stop-color="#004562" stop-opacity="0.9"/>
<stop offset="1" stop-color="#CAFFD6"/>
</linearGradient>
<linearGradient id="paint13_linear_462_7501" x1="316.957" y1="14.5" x2="426.957" y2="369" gradientUnits="userSpaceOnUse">
<stop stop-color="#004562" stop-opacity="0.9"/>
<stop offset="1" stop-color="#CAFFD6"/>
</linearGradient>
<radialGradient id="paint14_radial_462_7501" cx="0" cy="0" r="1" gradientTransform="matrix(22.6709 75.3432 -69.3969 17.2973 346.689 189.581)" gradientUnits="userSpaceOnUse">
<stop stop-color="#FFEB81"/>
<stop offset="0.682292" stop-color="#FFC839"/>
</radialGradient>
<radialGradient id="paint15_radial_462_7501" cx="0" cy="0" r="1" gradientTransform="matrix(4.05529 29.0976 -32.2259 3.19564 357.389 213.976)" gradientUnits="userSpaceOnUse">
<stop stop-color="#FF7D16"/>
<stop offset="1" stop-color="#FF3E12"/>
</radialGradient>
<linearGradient id="paint16_linear_462_7501" x1="455.614" y1="22.5" x2="565.614" y2="377" gradientUnits="userSpaceOnUse">
<stop stop-color="#004562" stop-opacity="0.9"/>
<stop offset="1" stop-color="#CAFFD6"/>
</linearGradient>
<linearGradient id="paint17_linear_462_7501" x1="455.614" y1="22.5" x2="565.614" y2="377" gradientUnits="userSpaceOnUse">
<stop stop-color="#004562" stop-opacity="0.9"/>
<stop offset="1" stop-color="#CAFFD6"/>
</linearGradient>
<radialGradient id="paint18_radial_462_7501" cx="0" cy="0" r="1" gradientTransform="matrix(0.732879 78.6768 -71.4666 -2.76675 430.416 204.067)" gradientUnits="userSpaceOnUse">
<stop stop-color="#FFEB81"/>
<stop offset="0.682292" stop-color="#FFC839"/>
</radialGradient>
<radialGradient id="paint19_radial_462_7501" cx="0" cy="0" r="1" gradientTransform="matrix(-4.23027 29.0727 -31.8365 -5.92916 433.88 230.48)" gradientUnits="userSpaceOnUse">
<stop stop-color="#FF7D16"/>
<stop offset="1" stop-color="#FF3E12"/>
</radialGradient>
<linearGradient id="paint20_linear_462_7501" x1="574.153" y1="61.5" x2="684.153" y2="416" gradientUnits="userSpaceOnUse">
<stop stop-color="#004562" stop-opacity="0.9"/>
<stop offset="1" stop-color="#CAFFD6"/>
</linearGradient>
<linearGradient id="paint21_linear_462_7501" x1="574.153" y1="61.5" x2="684.153" y2="416" gradientUnits="userSpaceOnUse">
<stop stop-color="#004562" stop-opacity="0.9"/>
<stop offset="1" stop-color="#CAFFD6"/>
</linearGradient>
<radialGradient id="paint22_radial_462_7501" cx="0" cy="0" r="1" gradientTransform="matrix(-13.9741 77.4293 -69.6924 -16.0655 512.419 238.74)" gradientUnits="userSpaceOnUse">
<stop stop-color="#FFEB81"/>
<stop offset="0.682292" stop-color="#FFC839"/>
</radialGradient>
<radialGradient id="paint23_radial_462_7501" cx="0" cy="0" r="1" gradientTransform="matrix(-9.58559 27.7711 -30.169 -11.7708 510.889 265.334)" gradientUnits="userSpaceOnUse">
<stop stop-color="#FF7D16"/>
<stop offset="1" stop-color="#FF3E12"/>
</radialGradient>
<clipPath id="clip0_462_7501">
<rect width="176" height="167" fill="white" transform="translate(414.372 115.795) rotate(33.9535)"/>
</clipPath>
<clipPath id="clip1_462_7501">
<rect width="176" height="167" fill="white" transform="translate(513.143 149.024) rotate(44.7175)"/>
</clipPath>
</defs>
</svg>
