<svg width="205" height="205" viewBox="0 0 205 205" fill="none" xmlns="http://www.w3.org/2000/svg">
<path d="M102.5 136.667V68.3333" stroke="black" stroke-width="13" stroke-linecap="round"/>
<path d="M68.3335 119.583V85.4167" stroke="black" stroke-width="13" stroke-linecap="round"/>
<path d="M136.667 119.583V85.4167" stroke="black" stroke-width="13" stroke-linecap="round"/>
<path d="M145.209 28.5105C132.645 21.2428 118.058 17.0833 102.5 17.0833C55.3258 17.0833 17.0835 55.3256 17.0835 102.5C17.0835 116.164 20.2919 129.078 25.9964 140.532C27.5124 143.575 28.0169 147.054 27.1381 150.338L22.0506 169.353C19.842 177.607 27.3934 185.158 35.6475 182.95L54.6616 177.862C57.9462 176.983 61.4251 177.488 64.4687 179.003C75.9217 184.708 88.8361 187.917 102.5 187.917C149.674 187.917 187.917 149.674 187.917 102.5C187.917 86.9421 183.757 72.3553 176.49 59.7916" stroke="black" stroke-width="13" stroke-linecap="round"/>
</svg>
