<svg width="225" height="225" viewBox="0 0 225 225" fill="none" xmlns="http://www.w3.org/2000/svg">
<path fill-rule="evenodd" clip-rule="evenodd" d="M51.5072 84.9703C51.5072 78.8015 55.4475 73.5572 60.9469 71.6118V52.0247H32.8125C30.2263 52.0247 28.125 54.1261 28.125 56.7122V169.212C28.125 171.798 30.2263 173.9 32.8125 173.9H93.5906C96.1795 173.9 98.2781 175.998 98.2781 178.587C98.2781 181.176 96.1795 183.275 93.5906 183.275H32.8125C25.0487 183.275 18.75 176.976 18.75 169.212V56.7122C18.75 48.9482 25.0487 42.6498 32.8125 42.6498H60.9469V33.3835C60.9469 30.7947 63.0455 28.696 65.6344 28.696C68.2233 28.696 70.3219 30.7947 70.3219 33.3835V42.6498H112.509C115.098 42.6498 117.197 44.7484 117.197 47.3372L117.195 47.4586L117.197 47.58V127.582C122.742 129.506 126.723 134.776 126.723 140.977C126.723 147.179 122.743 152.443 117.197 154.364V173.9H192.188C194.774 173.9 196.875 171.798 196.875 169.212V56.7122C196.875 54.1261 194.774 52.0247 192.188 52.0247H131.259C128.67 52.0247 126.572 49.9261 126.572 47.3372C126.572 44.7484 128.67 42.6498 131.259 42.6498H154.697V33.4679C154.697 30.8791 156.795 28.7804 159.384 28.7804C161.973 28.7804 164.072 30.8791 164.072 33.4679V42.6498H192.188C199.951 42.6498 206.25 48.9482 206.25 56.7122V169.212C206.25 176.976 199.951 183.275 192.188 183.275H117.197V192.189C117.197 194.778 115.098 196.877 112.509 196.877C109.92 196.877 107.822 194.778 107.822 192.189V154.336C102.323 152.391 98.3822 147.147 98.3822 140.977C98.3822 134.808 102.323 129.558 107.822 127.611V52.0247H70.3219V71.5837C75.8677 73.5051 79.8478 78.7697 79.8478 84.9703C79.8478 91.1714 75.8672 96.4415 70.3219 98.3657V159.618C70.3219 162.207 68.2233 164.305 65.6344 164.305C63.0455 164.305 60.9469 162.207 60.9469 159.618V98.3372C55.4475 96.3895 51.5072 91.1395 51.5072 84.9703ZM65.8172 89.7684C65.7567 89.7661 65.6958 89.7647 65.6344 89.7647C65.5861 89.7647 65.5378 89.7656 65.49 89.767C62.9311 89.6704 60.8822 87.5601 60.8822 84.9703C60.8822 82.3228 63.0262 80.1797 65.6728 80.1797C68.3278 80.1797 70.4728 82.3218 70.4728 84.9703C70.4728 87.5737 68.4023 89.692 65.8172 89.7684ZM154.697 126.462C149.197 124.514 145.257 119.265 145.257 113.095C145.257 106.927 149.197 101.682 154.697 99.7368V66.3272C154.697 63.7383 156.795 61.6397 159.384 61.6397C161.973 61.6397 164.072 63.7383 164.072 66.3272V99.7087C169.618 101.63 173.598 106.895 173.598 113.095C173.598 119.296 169.617 124.567 164.072 126.491V159.618C164.072 162.207 161.973 164.305 159.384 164.305C156.795 164.305 154.697 162.207 154.697 159.618V126.462ZM164.223 113.095C164.223 110.447 162.078 108.305 159.423 108.305C156.776 108.305 154.632 110.448 154.632 113.095C154.632 115.747 156.78 117.895 159.423 117.895C162.075 117.895 164.223 115.747 164.223 113.095ZM117.348 140.977C117.348 138.326 115.2 136.177 112.548 136.177C109.905 136.177 107.757 138.327 107.757 140.977C107.757 143.625 109.901 145.768 112.548 145.768C115.203 145.768 117.348 143.626 117.348 140.977Z" fill="black"/>
</svg>
