<svg width="136" height="136" viewBox="0 0 136 136" fill="none" xmlns="http://www.w3.org/2000/svg">
<g clip-path="url(#clip0_677_7896)">
<rect width="136" height="136" fill="white"/>
<path d="M123 7.5C128.247 7.5 132.5 11.7533 132.5 17V100C132.5 115.74 119.74 128.5 104 128.5C88.2595 128.5 75.5 115.74 75.5 100C75.5 84.2595 88.2595 71.5 104 71.5H107C107.276 71.5 107.5 71.2761 107.5 71V49C107.5 48.7239 107.276 48.5 107 48.5H61C60.7239 48.5 60.5 48.7239 60.5 49V100C60.5 115.741 47.74 128.5 32 128.5C16.26 128.5 3.5 115.741 3.5 100C3.5 84.2595 16.26 71.5 32 71.5H35C35.2761 71.5 35.5 71.2761 35.5 71V17C35.5 11.7533 39.7533 7.5 45 7.5H123Z" fill="white" stroke="#4A5565" stroke-width="9"/>
</g>
<defs>
<clipPath id="clip0_677_7896">
<rect width="136" height="136" fill="white"/>
</clipPath>
</defs>
</svg>
