<svg width="160" height="160" viewBox="0 0 160 160" fill="none" xmlns="http://www.w3.org/2000/svg">
<path d="M73.4464 18.76C73.7321 17.2307 74.5436 15.8494 75.7404 14.8555C76.9372 13.8615 78.444 13.3174 79.9998 13.3174C81.5555 13.3174 83.0623 13.8615 84.2591 14.8555C85.4559 15.8494 86.2674 17.2307 86.5531 18.76L93.5598 55.8133C94.0574 58.4477 95.3376 60.8708 97.2333 62.7665C99.129 64.6622 101.552 65.9424 104.186 66.44L141.24 73.4467C142.769 73.7323 144.15 74.5438 145.144 75.7407C146.138 76.9375 146.682 78.4443 146.682 80C146.682 81.5558 146.138 83.0625 145.144 84.2594C144.15 85.4562 142.769 86.2677 141.24 86.5533L104.186 93.56C101.552 94.0576 99.129 95.3379 97.2333 97.2335C95.3376 99.1292 94.0574 101.552 93.5598 104.187L86.5531 141.24C86.2674 142.769 85.4559 144.151 84.2591 145.145C83.0623 146.139 81.5555 146.683 79.9998 146.683C78.444 146.683 76.9372 146.139 75.7404 145.145C74.5436 144.151 73.7321 142.769 73.4464 141.24L66.4398 104.187C65.9421 101.552 64.6619 99.1292 62.7662 97.2335C60.8705 95.3379 58.4474 94.0576 55.8131 93.56L18.7598 86.5533C17.2305 86.2677 15.8492 85.4562 14.8552 84.2594C13.8612 83.0625 13.3171 81.5558 13.3171 80C13.3171 78.4443 13.8612 76.9375 14.8552 75.7407C15.8492 74.5438 17.2305 73.7323 18.7598 73.4467L55.8131 66.44C58.4474 65.9424 60.8705 64.6622 62.7662 62.7665C64.6619 60.8708 65.9421 58.4477 66.4398 55.8133L73.4464 18.76Z" stroke="#4A5565" stroke-width="9" stroke-linecap="round" stroke-linejoin="round"/>
<path d="M133.333 13.3335V40.0002" stroke="#4A5565" stroke-width="9" stroke-linecap="round" stroke-linejoin="round"/>
<path d="M146.667 26.6665H120" stroke="#4A5565" stroke-width="9" stroke-linecap="round" stroke-linejoin="round"/>
<path d="M26.6666 146.667C34.0304 146.667 39.9999 140.697 39.9999 133.333C39.9999 125.97 34.0304 120 26.6666 120C19.3028 120 13.3333 125.97 13.3333 133.333C13.3333 140.697 19.3028 146.667 26.6666 146.667Z" stroke="#4A5565" stroke-width="9" stroke-linecap="round" stroke-linejoin="round"/>
</svg>
