<svg width="110" height="110" viewBox="0 0 110 110" fill="none" xmlns="http://www.w3.org/2000/svg">
<path d="M50.4944 12.8976C50.6908 11.8462 51.2487 10.8966 52.0715 10.2132C52.8943 9.52983 53.9302 9.15576 54.9998 9.15576C56.0694 9.15576 57.1053 9.52983 57.9281 10.2132C58.7509 10.8966 59.3089 11.8462 59.5052 12.8976L64.3223 38.3717C64.6644 40.1828 65.5446 41.8487 66.8479 43.152C68.1512 44.4553 69.8171 45.3354 71.6282 45.6776L97.1023 50.4947C98.1537 50.691 99.1033 51.2489 99.7867 52.0718C100.47 52.8946 100.844 53.9305 100.844 55.0001C100.844 56.0697 100.47 57.1056 99.7867 57.9284C99.1033 58.7512 98.1537 59.3091 97.1023 59.5055L71.6282 64.3226C69.8171 64.6647 68.1512 65.5448 66.8479 66.8481C65.5446 68.1514 64.6644 69.8173 64.3223 71.6284L59.5052 97.1026C59.3089 98.154 58.7509 99.1036 57.9281 99.7869C57.1053 100.47 56.0694 100.844 54.9998 100.844C53.9302 100.844 52.8943 100.47 52.0715 99.7869C51.2487 99.1036 50.6908 98.154 50.4944 97.1026L45.6773 71.6284C45.3352 69.8173 44.4551 68.1514 43.1518 66.8481C41.8485 65.5448 40.1826 64.6647 38.3715 64.3226L12.8973 59.5055C11.8459 59.3091 10.8963 58.7512 10.213 57.9284C9.52959 57.1056 9.15552 56.0697 9.15552 55.0001C9.15552 53.9305 9.52959 52.8946 10.213 52.0718C10.8963 51.2489 11.8459 50.691 12.8973 50.4947L38.3715 45.6776C40.1826 45.3354 41.8485 44.4553 43.1518 43.152C44.4551 41.8487 45.3352 40.1828 45.6773 38.3717L50.4944 12.8976Z" stroke="#4A5565" stroke-width="6.66667" stroke-linecap="round" stroke-linejoin="round"/>
<path d="M91.6667 9.16663V27.5" stroke="#4A5565" stroke-width="6.66667" stroke-linecap="round" stroke-linejoin="round"/>
<path d="M100.833 18.3334H82.5" stroke="#4A5565" stroke-width="6.66667" stroke-linecap="round" stroke-linejoin="round"/>
<path d="M18.3334 100.833C23.396 100.833 27.5001 96.7293 27.5001 91.6667C27.5001 86.6041 23.396 82.5 18.3334 82.5C13.2708 82.5 9.16675 86.6041 9.16675 91.6667C9.16675 96.7293 13.2708 100.833 18.3334 100.833Z" stroke="#4A5565" stroke-width="6.66667" stroke-linecap="round" stroke-linejoin="round"/>
</svg>
