<svg width="159" height="159" viewBox="0 0 159 159" fill="none" xmlns="http://www.w3.org/2000/svg">
<g filter="url(#filter0_d_155_424)">
<mask id="path-1-inside-1_155_424" fill="white">
<path d="M24 40C24 28.9543 32.9543 20 44 20H115C126.046 20 135 28.9543 135 40V111C135 122.046 126.046 131 115 131H44C32.9543 131 24 122.046 24 111V40Z"/>
</mask>
<path d="M24 40C24 28.9543 32.9543 20 44 20H115C126.046 20 135 28.9543 135 40V111C135 122.046 126.046 131 115 131H44C32.9543 131 24 122.046 24 111V40Z" fill="#00083F" fill-opacity="0.63" shape-rendering="crispEdges"/>
<path d="M44 20V22H115V20V18H44V20ZM135 40H133V111H135H137V40H135ZM115 131V129H44V131V133H115V131ZM24 111H26V40H24H22V111H24ZM44 131V129C34.0589 129 26 120.941 26 111H24H22C22 123.15 31.8497 133 44 133V131ZM135 111H133C133 120.941 124.941 129 115 129V131V133C127.15 133 137 123.15 137 111H135ZM115 20V22C124.941 22 133 30.0589 133 40H135H137C137 27.8497 127.15 18 115 18V20ZM44 20V18C31.8497 18 22 27.8497 22 40H24H26C26 30.0589 34.0589 22 44 22V20Z" fill="white" fill-opacity="0.8" mask="url(#path-1-inside-1_155_424)"/>
<path d="M52.125 75.5L58.2083 69.4167M58.2083 69.4167L79.5 48.125L100.792 69.4167M58.2083 69.4167V99.8333C58.2083 100.64 58.5288 101.414 59.0992 101.984C59.6696 102.555 60.4433 102.875 61.25 102.875H70.375M100.792 69.4167L106.875 75.5M100.792 69.4167V99.8333C100.792 100.64 100.471 101.414 99.9008 101.984C99.3304 102.555 98.5567 102.875 97.75 102.875H88.625M70.375 102.875C71.1817 102.875 71.9554 102.555 72.5258 101.984C73.0962 101.414 73.4167 100.64 73.4167 99.8333V87.6667C73.4167 86.86 73.7371 86.0863 74.3076 85.5159C74.878 84.9455 75.6516 84.625 76.4583 84.625H82.5417C83.3484 84.625 84.122 84.9455 84.6925 85.5159C85.2629 86.0863 85.5833 86.86 85.5833 87.6667V99.8333C85.5833 100.64 85.9038 101.414 86.4742 101.984C87.0446 102.555 87.8183 102.875 88.625 102.875M70.375 102.875H88.625" stroke="white" stroke-width="5" stroke-linecap="round" stroke-linejoin="round"/>
</g>
<defs>
<filter id="filter0_d_155_424" x="0" y="0" width="159" height="159" filterUnits="userSpaceOnUse" color-interpolation-filters="sRGB">
<feFlood flood-opacity="0" result="BackgroundImageFix"/>
<feColorMatrix in="SourceAlpha" type="matrix" values="0 0 0 0 0 0 0 0 0 0 0 0 0 0 0 0 0 0 127 0" result="hardAlpha"/>
<feOffset dy="4"/>
<feGaussianBlur stdDeviation="12"/>
<feComposite in2="hardAlpha" operator="out"/>
<feColorMatrix type="matrix" values="0 0 0 0 0 0 0 0 0 0 0 0 0 0 0 0 0 0 0.12 0"/>
<feBlend mode="normal" in2="BackgroundImageFix" result="effect1_dropShadow_155_424"/>
<feBlend mode="normal" in="SourceGraphic" in2="effect1_dropShadow_155_424" result="shape"/>
</filter>
</defs>
</svg>
