<svg width="73" height="73" viewBox="0 0 73 73" fill="none" xmlns="http://www.w3.org/2000/svg">
<path d="M9.125 36.5L15.2083 30.4167M15.2083 30.4167L36.5 9.125L57.7917 30.4167M15.2083 30.4167V60.8333C15.2083 61.64 15.5288 62.4137 16.0992 62.9841C16.6696 63.5545 17.4433 63.875 18.25 63.875H27.375M57.7917 30.4167L63.875 36.5M57.7917 30.4167V60.8333C57.7917 61.64 57.4712 62.4137 56.9008 62.9841C56.3304 63.5545 55.5567 63.875 54.75 63.875H45.625M27.375 63.875C28.1817 63.875 28.9554 63.5545 29.5258 62.9841C30.0962 62.4137 30.4167 61.64 30.4167 60.8333V48.6667C30.4167 47.86 30.7371 47.0863 31.3076 46.5159C31.878 45.9455 32.6516 45.625 33.4583 45.625H39.5417C40.3484 45.625 41.122 45.9455 41.6925 46.5159C42.2629 47.0863 42.5833 47.86 42.5833 48.6667V60.8333C42.5833 61.64 42.9038 62.4137 43.4742 62.9841C44.0446 63.5545 44.8183 63.875 45.625 63.875M27.375 63.875H45.625" stroke="white" stroke-width="5" stroke-linecap="round" stroke-linejoin="round"/>
</svg>
