<svg width="1436" height="12" viewBox="0 0 1436 12" fill="none" xmlns="http://www.w3.org/2000/svg">
<path d="M596 6C596 5.17157 596.672 4.5 597.5 4.5H694.5C695.328 4.5 696 5.17157 696 6C696 6.82843 695.328 7.5 694.5 7.5H597.5C596.672 7.5 596 6.82843 596 6Z" fill="url(#paint0_linear_155_414)"/>
<path d="M712 6C712 2.68629 714.686 0 718 0C721.314 0 724 2.68629 724 6C724 9.31371 721.314 12 718 12C714.686 12 712 9.31371 712 6Z" fill="#51A2FF"/>
<path d="M740 6C740 5.17157 740.672 4.5 741.5 4.5H838.5C839.328 4.5 840 5.17157 840 6C840 6.82843 839.328 7.5 838.5 7.5H741.5C740.672 7.5 740 6.82843 740 6Z" fill="url(#paint1_linear_155_414)"/>
<defs>
<linearGradient id="paint0_linear_155_414" x1="596" y1="6" x2="696" y2="6" gradientUnits="userSpaceOnUse">
<stop stop-opacity="0"/>
<stop offset="1" stop-color="#BEDBFF"/>
</linearGradient>
<linearGradient id="paint1_linear_155_414" x1="840" y1="6" x2="740" y2="6" gradientUnits="userSpaceOnUse">
<stop stop-opacity="0"/>
<stop offset="1" stop-color="#BEDBFF"/>
</linearGradient>
</defs>
</svg>
