<svg width="39" height="39" viewBox="0 0 39 39" fill="none" xmlns="http://www.w3.org/2000/svg">
<path d="M30.5001 17.25C30.5001 25.3637 21.4991 33.8136 18.4766 36.4233C18.195 36.6351 17.8524 36.7495 17.5 36.7495C17.1477 36.7495 16.8049 36.6351 16.5234 36.4233C13.5009 33.8136 4.5 25.3637 4.5 17.25C4.5 13.8022 5.86964 10.4956 8.30761 8.05761C10.7456 5.61964 14.0522 4.25 17.5 4.25C20.9478 4.25 24.2544 5.61964 26.6923 8.05761C29.1304 10.4956 30.5001 13.8022 30.5001 17.25Z" stroke="#9BC8FF" stroke-width="2.66667" stroke-linecap="round" stroke-linejoin="round"/>
<path d="M17.5 22.1249C20.1924 22.1249 22.375 19.9424 22.375 17.25C22.375 14.5576 20.1924 12.375 17.5 12.375C14.8076 12.375 12.625 14.5576 12.625 17.25C12.625 19.9424 14.8076 22.1249 17.5 22.1249Z" stroke="#9BC8FF" stroke-width="2.66667" stroke-linecap="round" stroke-linejoin="round"/>
</svg>
