<svg width="80" height="80" viewBox="0 0 80 80" fill="none" xmlns="http://www.w3.org/2000/svg">
<path d="M40 63.3333V73.3333" stroke="white" stroke-width="8.33333" stroke-linecap="round" stroke-linejoin="round"/>
<path d="M63.3332 33.3333V39.9999C63.3332 46.1883 60.8748 52.1232 56.499 56.4991C52.1231 60.8749 46.1882 63.3333 39.9998 63.3333C33.8115 63.3333 27.8765 60.8749 23.5007 56.4991C19.1248 52.1232 16.6665 46.1883 16.6665 39.9999V33.3333" stroke="white" stroke-width="8.33333" stroke-linecap="round" stroke-linejoin="round"/>
<path d="M50 16.6667C50 11.1439 45.5228 6.66675 40 6.66675C34.4772 6.66675 30 11.1439 30 16.6667V40.0001C30 45.5229 34.4772 50.0001 40 50.0001C45.5228 50.0001 50 45.5229 50 40.0001V16.6667Z" stroke="white" stroke-width="8.33333" stroke-linecap="round" stroke-linejoin="round"/>
</svg>
