<svg width="60" height="61" viewBox="0 0 60 61" fill="none" xmlns="http://www.w3.org/2000/svg">
<path d="M48.4677 46.858L37.6179 35.7006C39.8599 32.6396 40.8897 28.8181 40.4995 25.0069C40.1094 21.1957 38.3283 17.6785 35.5156 15.1647C32.7028 12.6509 29.0677 11.3275 25.3435 11.4614C21.6192 11.5954 18.0829 13.1767 15.4478 15.8865C12.8128 18.5963 11.275 22.2329 11.1447 26.0628C11.0145 29.8926 12.3014 33.6308 14.7459 36.5233C17.1904 39.4158 20.6107 41.2474 24.3167 41.6486C28.0228 42.0498 31.7389 40.9908 34.7156 38.6852L45.5655 49.8428L48.4677 46.858ZM25.9862 37.5113C23.9118 37.5113 21.884 36.8788 20.1592 35.6936C18.4344 34.5085 17.09 32.8241 16.2961 30.8533C15.5022 28.8825 15.2944 26.7138 15.699 24.6216C16.1036 22.5293 17.1023 20.6074 18.569 19.0989C20.0357 17.5904 21.9045 16.563 23.939 16.1466C25.9735 15.7302 28.0823 15.9436 29.9989 16.7597C31.9155 17.5758 33.5537 18.958 34.7064 20.7315C35.8592 22.5051 36.4746 24.5903 36.4749 26.7235C36.4717 29.5833 35.3657 32.3251 33.3994 34.3474C31.4331 36.3698 28.7672 37.5076 25.9862 37.5113Z" fill="#1D4ED8"/>
</svg>
