<svg width="110" height="110" viewBox="0 0 110 110" fill="none" xmlns="http://www.w3.org/2000/svg">
<path d="M52.8229 10.5188C53.0238 10.113 53.3341 9.77144 53.7188 9.53261C54.1035 9.29379 54.5472 9.16724 55 9.16724C55.4528 9.16724 55.8966 9.29379 56.2813 9.53261C56.666 9.77144 56.9763 10.113 57.1771 10.5188L67.7646 31.9642C68.4621 33.3758 69.4917 34.597 70.765 35.523C72.0383 36.449 73.5173 37.0523 75.075 37.2809L98.7525 40.7459C99.2012 40.8109 99.6227 41.0002 99.9694 41.2922C100.316 41.5843 100.574 41.9676 100.714 42.3987C100.854 42.8298 100.871 43.2915 100.763 43.7317C100.654 44.1718 100.425 44.5728 100.1 44.8892L82.9767 61.5634C81.8474 62.6639 81.0025 64.0223 80.5147 65.5217C80.0269 67.0211 79.9107 68.6167 80.1763 70.1709L84.2188 93.7293C84.298 94.1777 84.2495 94.6393 84.079 95.0616C83.9084 95.4838 83.6226 95.8495 83.2542 96.1172C82.8858 96.3848 82.4495 96.5434 81.9952 96.575C81.541 96.6066 81.087 96.5099 80.685 96.2959L59.5192 85.1676C58.1246 84.4353 56.5729 84.0527 54.9977 84.0527C53.4225 84.0527 51.8709 84.4353 50.4763 85.1676L29.315 96.2959C28.9132 96.5086 28.4598 96.6043 28.0063 96.5721C27.5528 96.5399 27.1174 96.381 26.7497 96.1136C26.382 95.8462 26.0968 95.4809 25.9264 95.0594C25.756 94.6379 25.7073 94.1771 25.7859 93.7293L29.8238 70.1755C30.0905 68.6205 29.975 67.024 29.4871 65.5236C28.9992 64.0233 28.1537 62.6641 27.0234 61.5634L9.90003 44.8938C9.57275 44.5777 9.34083 44.1761 9.23069 43.7346C9.12055 43.2931 9.13662 42.8296 9.27706 42.3968C9.4175 41.964 9.67667 41.5794 10.025 41.2867C10.3734 40.994 10.797 40.805 11.2475 40.7413L34.9204 37.2809C36.48 37.054 37.961 36.4516 39.236 35.5254C40.5111 34.5993 41.542 33.3772 42.24 31.9642L52.8229 10.5188Z" stroke="#4A5565" stroke-width="6.66667" stroke-linecap="round" stroke-linejoin="round"/>
</svg>
