<svg width="160" height="160" viewBox="0 0 160 160" fill="none" xmlns="http://www.w3.org/2000/svg">
<path d="M76.8335 15.2999C77.1257 14.7097 77.577 14.2128 78.1365 13.8654C78.6961 13.5181 79.3416 13.334 80.0002 13.334C80.6588 13.334 81.3043 13.5181 81.8639 13.8654C82.4234 14.2128 82.8747 14.7097 83.1669 15.2999L98.5669 46.4933C99.5814 48.5464 101.079 50.3227 102.931 51.6696C104.783 53.0166 106.934 53.894 109.2 54.2266L143.64 59.2666C144.293 59.3612 144.906 59.6364 145.41 60.0613C145.914 60.4861 146.29 61.0436 146.494 61.6707C146.698 62.2977 146.722 62.9693 146.564 63.6095C146.406 64.2497 146.072 64.833 145.6 65.2933L120.694 89.5466C119.051 91.1473 117.822 93.1232 117.112 95.3041C116.403 97.4851 116.234 99.8059 116.62 102.067L122.5 136.333C122.615 136.986 122.545 137.657 122.297 138.271C122.049 138.885 121.633 139.417 121.097 139.807C120.561 140.196 119.927 140.427 119.266 140.473C118.605 140.519 117.945 140.378 117.36 140.067L86.5735 123.88C84.545 122.815 82.2881 122.258 79.9969 122.258C77.7057 122.258 75.4488 122.815 73.4202 123.88L42.6402 140.067C42.0557 140.376 41.3962 140.515 40.7365 140.468C40.0769 140.421 39.4437 140.19 38.9088 139.801C38.374 139.412 37.9591 138.881 37.7112 138.268C37.4634 137.655 37.3926 136.985 37.5069 136.333L43.3802 102.073C43.7682 99.8115 43.6001 97.4893 42.8905 95.3069C42.1808 93.1246 40.9509 91.1476 39.3069 89.5466L14.4002 65.2999C13.9242 64.8402 13.5868 64.2559 13.4266 63.6138C13.2664 62.9716 13.2898 62.2974 13.4941 61.6679C13.6983 61.0384 14.0753 60.4789 14.582 60.0532C15.0888 59.6274 15.7049 59.3526 16.3602 59.2599L50.7935 54.2266C53.0619 53.8966 55.2161 53.0203 57.0708 51.6732C58.9254 50.3261 60.4249 48.5484 61.4402 46.4933L76.8335 15.2999Z" stroke="#4A5565" stroke-width="9" stroke-linecap="round" stroke-linejoin="round"/>
</svg>
