<svg width="110" height="110" viewBox="0 0 110 110" fill="none" xmlns="http://www.w3.org/2000/svg">
<path d="M68.7502 9.16663H27.5002C25.069 9.16663 22.7374 10.1324 21.0183 11.8515C19.2993 13.5706 18.3335 15.9021 18.3335 18.3333V91.6666C18.3335 94.0978 19.2993 96.4293 21.0183 98.1484C22.7374 99.8675 25.069 100.833 27.5002 100.833H82.5002C84.9313 100.833 87.2629 99.8675 88.982 98.1484C90.7011 96.4293 91.6668 94.0978 91.6668 91.6666V32.0833L68.7502 9.16663Z" stroke="#4A5565" stroke-width="6.66667" stroke-linecap="round" stroke-linejoin="round"/>
<path d="M64.1665 9.16663V27.5C64.1665 29.9311 65.1323 32.2627 66.8514 33.9818C68.5704 35.7009 70.902 36.6666 73.3332 36.6666H91.6665" stroke="#4A5565" stroke-width="6.66667" stroke-linecap="round" stroke-linejoin="round"/>
<path d="M45.8332 41.25H36.6665" stroke="#4A5565" stroke-width="6.66667" stroke-linecap="round" stroke-linejoin="round"/>
<path d="M73.3332 59.5834H36.6665" stroke="#4A5565" stroke-width="6.66667" stroke-linecap="round" stroke-linejoin="round"/>
<path d="M73.3332 77.9166H36.6665" stroke="#4A5565" stroke-width="6.66667" stroke-linecap="round" stroke-linejoin="round"/>
</svg>
