<svg width="160" height="160" viewBox="0 0 160 160" fill="none" xmlns="http://www.w3.org/2000/svg">
<path d="M100 13.3335H40.0001C36.4639 13.3335 33.0725 14.7383 30.572 17.2387C28.0715 19.7392 26.6667 23.1306 26.6667 26.6668V133.333C26.6667 136.87 28.0715 140.261 30.572 142.762C33.0725 145.262 36.4639 146.667 40.0001 146.667H120C123.536 146.667 126.928 145.262 129.428 142.762C131.929 140.261 133.333 136.87 133.333 133.333V46.6668L100 13.3335Z" stroke="#4A5565" stroke-width="9" stroke-linecap="round" stroke-linejoin="round"/>
<path d="M93.3333 13.3335V40.0002C93.3333 43.5364 94.738 46.9278 97.2385 49.4283C99.739 51.9287 103.13 53.3335 106.667 53.3335H133.333" stroke="#4A5565" stroke-width="9" stroke-linecap="round" stroke-linejoin="round"/>
<path d="M66.6666 60H53.3333" stroke="#4A5565" stroke-width="9" stroke-linecap="round" stroke-linejoin="round"/>
<path d="M106.667 86.6665H53.3333" stroke="#4A5565" stroke-width="9" stroke-linecap="round" stroke-linejoin="round"/>
<path d="M106.667 113.333H53.3333" stroke="#4A5565" stroke-width="9" stroke-linecap="round" stroke-linejoin="round"/>
</svg>
