<svg width="100" height="100" viewBox="0 0 100 100" fill="none" xmlns="http://www.w3.org/2000/svg">
<path d="M32.9464 80.18C30.2664 80.18 28.0464 79.66 26.2864 78.62C24.5664 77.58 23.1464 76.08 22.0264 74.12C20.9464 72.16 19.9664 69.78 19.0864 66.98L12.3664 45.44C11.7264 43.44 11.7664 41.7 12.4864 40.22C13.2464 38.7 14.5864 37.66 16.5064 37.1C18.2664 36.58 19.8664 36.7 21.3064 37.46C22.7464 38.18 23.7264 39.42 24.2464 41.18L30.7864 61.94C31.4664 64.18 32.3264 65.68 33.3664 66.44C34.4464 67.16 35.6064 67.32 36.8464 66.92C38.1264 66.56 38.9464 65.84 39.3064 64.76C39.6664 63.64 39.5664 61.96 39.0064 59.72C38.0864 55.72 37.4664 52.58 37.1464 50.3C36.8264 48.02 36.6664 46.22 36.6664 44.9C36.6664 42.66 37.2664 40.74 38.4664 39.14C39.7064 37.5 41.6064 36.68 44.1664 36.68C46.6864 36.68 48.5064 37.5 49.6264 39.14C50.7864 40.74 51.3664 42.66 51.3664 44.9C51.3664 46.22 51.1864 47.58 50.8264 48.98C50.4664 50.38 50.0464 51.82 49.5664 53.3L44.2264 69.44C43.5064 71.6 42.7064 73.5 41.8264 75.14C40.9864 76.74 39.8664 77.98 38.4664 78.86C37.1064 79.74 35.2664 80.18 32.9464 80.18ZM71.2203 80.18C68.9803 80.18 66.7203 79.96 64.4403 79.52C62.2003 79.04 60.1203 78.36 58.2003 77.48C56.3203 76.56 54.8003 75.46 53.6403 74.18C52.4803 72.86 51.9003 71.34 51.9003 69.62C51.9003 67.42 52.6003 65.66 54.0003 64.34C55.4003 63.02 57.0403 62.4 58.9203 62.48C60.4003 62.52 61.8803 62.84 63.3603 63.44C64.8403 64 66.3403 64.56 67.8603 65.12C69.4203 65.68 70.9803 65.96 72.5403 65.96C74.1003 65.96 75.1803 65.76 75.7803 65.36C76.3803 64.96 76.6803 64.42 76.6803 63.74C76.6803 62.94 76.2603 62.28 75.4203 61.76C74.5803 61.24 73.5203 60.84 72.2403 60.56L69.3003 59.84C66.2603 59.12 63.5403 58.32 61.1403 57.44C58.7403 56.52 56.8403 55.32 55.4403 53.84C54.0803 52.32 53.4003 50.3 53.4003 47.78C53.4003 45.02 54.1603 42.78 55.6803 41.06C57.2003 39.3 59.2603 38.02 61.8603 37.22C64.4603 36.42 67.3603 36.02 70.5603 36.02C73.8403 36.02 76.7203 36.36 79.2003 37.04C81.6803 37.72 83.6003 38.7 84.9603 39.98C86.3603 41.26 87.0603 42.82 87.0603 44.66C87.0603 46.62 86.5203 48.16 85.4403 49.28C84.4003 50.36 83.0003 50.9 81.2403 50.9C80.0803 50.9 78.8603 50.7 77.5803 50.3C76.3403 49.9 75.0203 49.52 73.6203 49.16C72.2603 48.76 70.8003 48.56 69.2403 48.56C67.8403 48.56 66.7803 48.78 66.0603 49.22C65.3403 49.62 64.9803 50.16 64.9803 50.84C64.9803 51.68 65.4603 52.3 66.4203 52.7C67.3803 53.1 68.9603 53.58 71.1603 54.14L74.5203 54.92C77.2803 55.6 79.7003 56.42 81.7803 57.38C83.8603 58.34 85.4803 59.6 86.6403 61.16C87.8003 62.72 88.3803 64.76 88.3803 67.28C88.3803 70.32 87.6603 72.8 86.2203 74.72C84.7803 76.6 82.7803 77.98 80.2203 78.86C77.6603 79.74 74.6603 80.18 71.2203 80.18Z" fill="#2563EB"/>
</svg>
