<svg width="140" height="94" viewBox="0 0 140 94" fill="none" xmlns="http://www.w3.org/2000/svg">
<path d="M0 47C0 21.0426 21.0426 0 47 0H93C118.957 0 140 21.0426 140 47C140 72.9574 118.957 94 93 94H47C21.0426 94 0 72.9574 0 47Z" fill="#1D4ED8" fill-opacity="0.56"/>
<path d="M52.4464 69.18C49.7664 69.18 47.5464 68.66 45.7864 67.62C44.0664 66.58 42.6464 65.08 41.5264 63.12C40.4464 61.16 39.4664 58.78 38.5864 55.98L31.8664 34.44C31.2264 32.44 31.2664 30.7 31.9864 29.22C32.7464 27.7 34.0864 26.66 36.0064 26.1C37.7664 25.58 39.3664 25.7 40.8064 26.46C42.2464 27.18 43.2264 28.42 43.7464 30.18L50.2864 50.94C50.9664 53.18 51.8264 54.68 52.8664 55.44C53.9464 56.16 55.1064 56.32 56.3464 55.92C57.6264 55.56 58.4464 54.84 58.8064 53.76C59.1664 52.64 59.0664 50.96 58.5064 48.72C57.5864 44.72 56.9664 41.58 56.6464 39.3C56.3264 37.02 56.1664 35.22 56.1664 33.9C56.1664 31.66 56.7664 29.74 57.9664 28.14C59.2064 26.5 61.1064 25.68 63.6664 25.68C66.1864 25.68 68.0064 26.5 69.1264 28.14C70.2864 29.74 70.8664 31.66 70.8664 33.9C70.8664 35.22 70.6864 36.58 70.3264 37.98C69.9664 39.38 69.5464 40.82 69.0664 42.3L63.7264 58.44C63.0064 60.6 62.2064 62.5 61.3264 64.14C60.4864 65.74 59.3664 66.98 57.9664 67.86C56.6064 68.74 54.7664 69.18 52.4464 69.18ZM90.7203 69.18C88.4803 69.18 86.2203 68.96 83.9403 68.52C81.7003 68.04 79.6203 67.36 77.7003 66.48C75.8203 65.56 74.3003 64.46 73.1403 63.18C71.9803 61.86 71.4003 60.34 71.4003 58.62C71.4003 56.42 72.1003 54.66 73.5003 53.34C74.9003 52.02 76.5403 51.4 78.4203 51.48C79.9003 51.52 81.3803 51.84 82.8603 52.44C84.3403 53 85.8403 53.56 87.3603 54.12C88.9203 54.68 90.4803 54.96 92.0403 54.96C93.6003 54.96 94.6803 54.76 95.2803 54.36C95.8803 53.96 96.1803 53.42 96.1803 52.74C96.1803 51.94 95.7603 51.28 94.9203 50.76C94.0803 50.24 93.0203 49.84 91.7403 49.56L88.8003 48.84C85.7603 48.12 83.0403 47.32 80.6403 46.44C78.2403 45.52 76.3403 44.32 74.9403 42.84C73.5803 41.32 72.9003 39.3 72.9003 36.78C72.9003 34.02 73.6603 31.78 75.1803 30.06C76.7003 28.3 78.7603 27.02 81.3603 26.22C83.9603 25.42 86.8603 25.02 90.0603 25.02C93.3403 25.02 96.2203 25.36 98.7003 26.04C101.18 26.72 103.1 27.7 104.46 28.98C105.86 30.26 106.56 31.82 106.56 33.66C106.56 35.62 106.02 37.16 104.94 38.28C103.9 39.36 102.5 39.9 100.74 39.9C99.5803 39.9 98.3603 39.7 97.0803 39.3C95.8403 38.9 94.5203 38.52 93.1203 38.16C91.7603 37.76 90.3003 37.56 88.7403 37.56C87.3403 37.56 86.2803 37.78 85.5603 38.22C84.8403 38.62 84.4803 39.16 84.4803 39.84C84.4803 40.68 84.9603 41.3 85.9203 41.7C86.8803 42.1 88.4603 42.58 90.6603 43.14L94.0203 43.92C96.7803 44.6 99.2003 45.42 101.28 46.38C103.36 47.34 104.98 48.6 106.14 50.16C107.3 51.72 107.88 53.76 107.88 56.28C107.88 59.32 107.16 61.8 105.72 63.72C104.28 65.6 102.28 66.98 99.7203 67.86C97.1603 68.74 94.1603 69.18 90.7203 69.18Z" fill="white"/>
</svg>
