<svg width="88" height="90" viewBox="0 0 88 90" fill="none" xmlns="http://www.w3.org/2000/svg">
<path d="M51.322 15C52.6449 15 53.9432 15.366 55.0793 16.0591C56.2154 16.7523 57.147 17.7469 57.7753 18.9375L59.5573 22.3125C60.1857 23.5031 61.1173 24.4977 62.2534 25.1909C63.3895 25.884 64.6878 26.25 66.0107 26.25H73.333C75.2779 26.25 77.1432 27.0402 78.5185 28.4467C79.8937 29.8532 80.6663 31.7609 80.6663 33.75V67.5C80.6663 69.4891 79.8937 71.3968 78.5185 72.8033C77.1432 74.2098 75.2779 75 73.333 75H14.6663C12.7214 75 10.8562 74.2098 9.48089 72.8033C8.10562 71.3968 7.33301 69.4891 7.33301 67.5V33.75C7.33301 31.7609 8.10562 29.8532 9.48089 28.4467C10.8562 27.0402 12.7214 26.25 14.6663 26.25H21.9887C23.3102 26.2501 24.6072 25.8849 25.7425 25.1931C26.8779 24.5013 27.8093 23.5086 28.4383 22.32L30.2313 18.93C30.8604 17.7414 31.7918 16.7487 32.9271 16.0569C34.0625 15.3651 35.3595 14.9999 36.681 15H51.322Z" stroke="#F6F6F6" stroke-width="7" stroke-linecap="round" stroke-linejoin="round"/>
<path d="M44 60C50.0751 60 55 54.9632 55 48.75C55 42.5368 50.0751 37.5 44 37.5C37.9249 37.5 33 42.5368 33 48.75C33 54.9632 37.9249 60 44 60Z" stroke="#F6F6F6" stroke-width="7" stroke-linecap="round" stroke-linejoin="round"/>
</svg>
